<?xml version="1.0" encoding="utf-8"?>
<!-- Generator: Adobe Illustrator 23.0.2, SVG Export Plug-In . SVG Version: 6.00 Build 0)  -->
<svg version="1.1" id="Capa_1" xmlns="http://www.w3.org/2000/svg" xmlns:xlink="http://www.w3.org/1999/xlink" x="0px" y="0px"
	 viewBox="0 0 199.6 62.7" style="enable-background:new 0 0 199.6 62.7;" xml:space="preserve">
<g>
	<g>
		<path d="M67.2,1.6c0,0.6,0,1.2,0,1.8c-0.5,0-0.9,0-1.3,0c-0.1,0-0.3,0-0.4,0c-1.3,0-1.8,0.6-1.8,1.9c0,5.8,0,11.6,0,17.4
			c0,3.8-1.9,6.5-5.4,7.9c0,0-0.1,0-0.3,0.1c0.4,0.1,0.8,0.1,1.2,0.2c6,1.4,10.2,5.9,11.1,11.9c0.5,3.3,0.3,6.5-1.1,9.5
			c-2,4.4-5.3,7.4-10.1,8.4c-0.6,0.1-1.2,0.2-1.9,0.3c-0.8,0-1.5,0-2.3,0c-0.6-0.1-1.2-0.2-1.8-0.3c-5.4-1.1-9.8-5.6-10.9-11
			c-0.2-0.9-0.3-1.8-0.4-2.7c0-0.9,0-1.7,0-2.6c0-0.1,0-0.2,0.1-0.4c0.1-0.9,0.2-1.8,0.4-2.6c1.2-4.5,3.8-7.8,8-9.7
			c0.4-0.2,0.9-0.3,1.3-0.5c-0.5-0.1-0.9-0.2-1.3-0.3c-2.6-0.7-4.6-2.2-5.7-4.7c-0.9-2.2-0.8-4.4,0.9-6.2c1.2-1.3,3.2-1.8,4.8-1.1
			c1.6,0.7,2.4,2.1,2.2,4c-0.1,1.5-1.3,3.2-3.5,2.7c-0.2,0-0.5-0.1-0.8-0.1c-0.8,0-1.1,0.3-1,1.1c0.1,0.8,0.5,1.3,1.1,1.7
			c1.4,1,3,1.3,4.6,1.1c1.9-0.2,3.1-1.3,3.8-3.1c0.4-1,0.5-2,0.5-3c0-6,0-12,0-18c0-0.2,0-0.4,0-0.6c0-0.8-0.4-1.2-1.1-1.3
			c-0.8-0.1-1.7,0-2.5,0c-0.3,0-0.6,0-0.9,0c0-0.6,0-1.2,0-1.8C57.7,1.6,62.4,1.6,67.2,1.6z M48.7,46.6c0,0.8,0.1,2.2,0.2,3.7
			c0.2,1.8,0.6,3.5,1.4,5.1c1.5,2.9,4.6,4.3,7.8,3.3c2.1-0.6,3.4-2.1,4.3-4c0.9-2,1.2-4.2,1.2-6.4c0-2.2,0-4.4-0.1-6.6
			c-0.1-1.6-0.3-3.2-0.9-4.7c-1-2.6-2.8-4.2-5.6-4.5c-2.4-0.2-4.4,0.5-5.8,2.4c-0.8,1.1-1.3,2.4-1.7,3.7
			C48.8,41.1,48.7,43.5,48.7,46.6z"/>
		<path d="M153.7,26.4c-0.6,0.8-1.1,1.6-1.8,2.3c-1.5,1.6-3.3,2.4-5.5,2.7c-2.3,0.2-4.6,0.1-6.8-1.1c-2.8-1.5-4.5-3.9-4.9-7.1
			c-0.3-2.1-0.1-4.1,0.8-6c1.8-3.6,4.6-5.6,8.7-5.6c1.8,0,3.6,0.3,5.2,1.2c2.1,1.3,3.3,3.2,3.8,5.6c0.2,0.8,0.2,1.6,0.3,2.4
			c0,0.1,0,0.3,0.1,0.4c0,0.2,0,0.5,0,0.7c-0.1,0-0.3,0-0.4,0c-4,0-7.9,0-11.9,0c-0.1,0-0.3,0-0.4,0s-0.2,0.2-0.2,0.2
			c0,1.2,0.2,2.5,0.6,3.7c0.8,2.4,2.8,3.8,5.2,3.6c1.6-0.1,2.9-0.8,4-2c0.7-0.7,1.3-1.6,2-2.4c0.4,0.2,0.7,0.4,1.1,0.7
			C153.7,26,153.7,26.2,153.7,26.4z M140.7,20.1c0.2,0,0.3,0,0.5,0c2,0,3.9,0,5.9,0c0.8,0,1.2-0.4,1.3-1.2c0.2-1.2,0.1-2.5-0.5-3.6
			c-0.6-1.2-1.7-2-3.1-2c-1.4,0-2.4,0.7-3.1,1.9C141,16.7,140.8,18.4,140.7,20.1z"/>
		<path d="M86.5,14c0-0.6,0-1.1,0-1.8c2.5-0.1,5-0.3,7.6-0.4c0.2,1.3,0.4,2.6,0.6,4c0.5-0.6,1-1.1,1.5-1.7c1.3-1.4,2.9-2.2,4.9-2.5
			c3.2-0.3,5.5,0.9,6.6,4c0,0.1,0.1,0.2,0.1,0.3c0.6-0.6,1.1-1.2,1.7-1.8c1.3-1.3,2.9-2.3,4.8-2.5c2-0.3,3.9,0,5.5,1.6
			c1,1,1.4,2.2,1.6,3.6c0.1,0.5,0.1,1.1,0.1,1.6c0,2.8,0,5.7,0,8.5c0,0.8,0.3,1.3,1,1.6c1.2,0.5,2.4,0.5,3.6,0
			c0.6-0.3,1-0.8,0.9-1.5c0-3.6,0-7.2,0-10.8c0-1.2-0.7-2-2-2.1c-0.3,0-0.6,0-1,0c0-0.6,0-1.2,0-1.8c1.1,0,2.3-0.1,3.4-0.2
			c1.4,0,2.8-0.1,4.2-0.2c0.5,0,0.5,0,0.5,0.5c0,5,0,9.9,0,14.9c0,1.1,0.5,1.5,1.5,1.5c0.4,0,0.9,0,1.4,0c0,0.3,0,0.6,0,0.9
			c0,0.3,0,0.6,0,0.9c-7.3,0-14.5,0-21.8,0c0-0.6,0-1.1,0-1.8c0.4,0,0.8,0,1.2,0c1.3,0,1.8-0.5,1.8-1.8c0-2.7,0-5.4,0-8.1
			c0-0.7-0.1-1.5-0.4-2.2c-0.4-1.2-1.4-1.8-2.6-1.9c-2-0.2-3.3,0.7-4.2,2.4c-0.6,1.1-0.9,2.2-0.9,3.5c0,2.1,0,4.2,0,6.3
			c0,1.3,0.5,1.8,1.8,1.8c0.4,0,0.8,0,1.2,0c0,0.6,0,1.1,0,1.6c0,0.1-0.2,0.2-0.3,0.2c-0.7,0-1.4,0-2.1,0c-2.8,0-5.6,0-8.5,0
			c-0.1,0-0.3,0-0.5,0c0-0.6,0-1.2,0-1.8c0.5,0,1,0,1.4,0c1.1,0,1.6-0.5,1.6-1.6c0-2.9,0-5.9,0-8.8c0-1.5-0.6-2.7-2-3.4
			c-1.4-0.7-3.3-0.2-4.5,1.1c-1,1.1-1.6,2.4-1.6,3.9c0,2.2,0,4.3,0,6.4c0,0.3,0,0.5,0,0.8c0.1,1.1,0.6,1.6,1.7,1.6
			c0.4,0,0.8,0,1.2,0c0,0.1,0,0.2,0,0.2c0,0.5,0,1,0,1.6c-0.2,0-0.3,0-0.5,0c-3.5,0-6.9,0-10.4,0c-0.3,0-0.6,0.1-0.9,0.2
			c-1.2,0.5-2.4,0.7-3.7,0.6c-1.8-0.2-2.9-1.3-3.6-2.9c-0.1-0.2-0.1-0.3-0.2-0.5c0,0,0,0,0,0c-0.8,0.7-1.6,1.4-2.5,2
			c-2.3,1.5-4.9,1.8-7.5,0.9c-3.9-1.3-3.6-5.2-2.1-7.2c0.9-1.2,2.2-2,3.7-2.5c2.3-0.8,4.8-1.3,7.2-1.8c0.3,0,0.6-0.1,0.9-0.1
			c0.2,0,0.3-0.1,0.3-0.4c0-0.8,0-1.6,0-2.4c0-1.9-1.3-3.3-3.3-3.5c-1.1-0.1-2.2,0-3.1,0.7c-0.6,0.4-0.6,0.6-0.3,1.2
			c0.4,0.6,0.6,1.3,0.6,2.1c-0.1,1-0.7,1.8-1.7,2c-0.6,0.1-1.3,0.1-2,0c-1.6-0.4-2.3-2.2-1.6-3.8c0.5-1.1,1.3-1.8,2.3-2.4
			c1.7-1,3.5-1.4,5.4-1.5c1.7,0,3.4,0.2,5,0.7c2.4,0.7,3.7,2.8,3.8,5c0.1,1.5,0,3,0,4.5c0,1.6,0,3.3,0,4.9c0,1.5,0.7,2.2,1.9,2.4
			c1.2,0.2,2.3,0.1,3.3-0.6c0.5-0.4,0.8-0.9,0.8-1.6c0-3.5,0-7,0-10.4c0-1.2-0.6-1.9-1.8-2C87.3,14.1,86.9,14.1,86.5,14z M78.3,20.8
			c-1.1,0.2-2.2,0.4-3.2,0.7c-0.5,0.1-1,0.3-1.4,0.5c-1.9,0.8-2.8,2.3-2.6,4.4c0.1,1.2,0.8,2,2,2.2c2,0.4,4.2-0.9,4.9-3
			C78.5,24.1,78.3,22.5,78.3,20.8z"/>
		<path d="M69.8,35.3c0-0.6,0-1.1,0-1.7c0.8,0,1.6,0,2.3-0.1c1.5-0.1,2.9-0.3,4.3-1.1c0.3-0.2,0.7-0.4,1-0.7
			c0.2-0.2,0.5-0.4,0.9-0.3c0,0.2,0,0.5,0,0.7c0,8.2,0,16.4,0,24.6c0,0.8,0.4,1.3,1.1,1.6c1.4,0.5,2.8,0.5,4.1,0
			c0.7-0.3,1.1-0.8,1.1-1.7c0-3.5,0-7.1,0-10.7c0-1.3-0.7-2.1-2.1-2.1c-0.3,0-0.6,0-0.9,0c0-0.6,0-1.2,0-1.8
			c2.7-0.1,5.4-0.2,8.2-0.4c0,0.2,0,0.4,0,0.5c0,4.9,0,9.8,0,14.7c0,0.1,0,0.2,0,0.4c0,0.8,0.5,1.3,1.3,1.3c0.3,0,0.5,0,0.8,0
			c0.2,0,0.5,0,0.8,0c0,0.6,0,1.2,0,1.8c-7.5,0-14.9,0-22.4,0c0-0.6,0-1.2,0-1.8c0.3,0,0.7,0,1.1,0c1.3,0,1.9-0.6,1.9-1.9
			c0-6.5,0-12.9,0-19.4c0-1.2-0.8-2.1-2-2.1C70.7,35.2,70.3,35.3,69.8,35.3z"/>
		<path d="M130.1,54.5c0.5,0.3,1,0.6,1.4,0.9c-1.6,2.9-3.8,5-7.2,5.4c-2.2,0.3-4.3,0.2-6.3-0.7c-3.4-1.5-5.3-4.1-5.6-7.8
			c-0.2-2.2,0-4.3,1.1-6.2c1.8-3.2,4.4-5,8.1-5.1c1.8-0.1,3.5,0.2,5.2,1c2.4,1.3,3.7,3.4,4.2,6c0.2,1.1,0.3,2.1,0.4,3.3
			c-4.4,0-8.7,0-13,0c0,0.6,0,1.1,0.1,1.7c0.1,1.1,0.4,2.2,0.9,3.3c1.4,2.5,4.3,3.3,6.9,2.1c1.4-0.7,2.4-1.8,3.3-3
			C129.7,55.1,129.9,54.8,130.1,54.5z M118.4,49.6c0.1,0,0.2,0,0.3,0c1.9,0,3.9,0,5.8,0c0.2,0,0.4,0,0.6,0c0.5-0.1,0.9-0.4,1-0.9
			c0.3-1.3,0.1-2.5-0.4-3.7c-0.6-1.3-1.6-2.1-3.1-2.2c-1.5,0-2.6,0.7-3.2,2C118.6,46.3,118.5,47.9,118.4,49.6z"/>
		<path d="M144.1,58.6c0,0.6,0,1.2,0,1.8c-4.2,0-8.4,0-12.7,0c0-0.6,0-1.2,0-1.8c0.4,0,0.9,0,1.3,0c0.3,0,0.6,0,0.8,0
			c0.9-0.2,1.2-0.6,1.2-1.5c0-3.6,0-7.2,0-10.8c0-0.3,0-0.6-0.1-0.9c-0.2-1.1-1-1.6-2.2-1.7c-0.3,0-0.7,0-1,0c0-0.6,0-1.1,0-1.7
			c2.6-0.1,5.2-0.3,7.8-0.4c0,1.9,0,3.7,0,5.6c0,0,0,0,0.1,0c0-0.1,0.1-0.3,0.1-0.5c0.6-1.8,1.4-3.4,3.1-4.5c1.5-1,3.2-1.2,4.9-0.5
			c2.1,0.9,2.7,3.8,1.1,5.4c-0.7,0.6-1.5,0.8-2.3,0.6c-0.9-0.3-1.4-1-1.6-1.9c-0.1-0.6,0-1.2,0.2-1.8c0.1-0.3,0.4-0.7,0-1
			s-0.7-0.1-1.1,0c-0.7,0.3-1.2,0.9-1.6,1.5c-1.1,1.7-1.7,3.6-2.1,5.6c-0.3,1.5-0.2,3.1-0.2,4.6c0,0.8,0,1.6,0,2.4
			c0,0.8,0.5,1.3,1.3,1.3c0.8,0,1.5,0,2.3,0C143.7,58.6,143.9,58.6,144.1,58.6z"/>
		<path d="M91.1,43.4c0-0.6,0-1.1,0-1.7c3.6,0,7.2,0,10.9,0c0,0.5,0,1,0,1.5c0,0.1-0.2,0.2-0.3,0.2c-0.5,0-1.1,0-1.6,0.1
			c-0.7,0.1-1,0.6-0.8,1.3c0.1,0.3,0.2,0.6,0.3,0.9c1.5,2.8,3.1,5.6,4.6,8.5c0,0.1,0.1,0.1,0.2,0.2c0.1-0.2,0.2-0.4,0.3-0.6
			c1.2-2.4,2.5-4.9,3.7-7.4c0.1-0.3,0.3-0.7,0.3-1c0.1-0.8-0.2-1.3-0.9-1.6c-0.3-0.1-0.6-0.2-0.9-0.2c-0.3,0-0.6-0.1-0.9-0.1
			c0-0.6,0-1.1,0-1.7c2.6,0,5.2,0,7.9,0c0,0.6,0,1.1,0,1.7c-1.6,0-2.3,1.1-3,2.3c-2.3,4.8-4.7,9.6-7.1,14.4
			c-0.1,0.3-0.3,0.3-0.6,0.4c-0.8,0.1-1.1-0.2-1.5-0.9c-2.6-4.8-5.2-9.6-7.8-14.3c-0.2-0.3-0.3-0.6-0.5-0.9c-0.4-0.7-1-1.1-1.9-1.1
			C91.4,43.4,91.3,43.4,91.1,43.4z"/>
		<path d="M83.5,36.6c0-1.8,1.4-3.3,3.2-3.3c1.8,0,3.2,1.4,3.2,3.2c0,1.8-1.4,3.2-3.1,3.2C84.9,39.8,83.5,38.4,83.5,36.6z"/>
		<path d="M132.6,6.9c0,1.8-1.4,3.2-3.3,3.2c-1.8,0-3.2-1.4-3.2-3.2c0-1.8,1.4-3.2,3.3-3.2C131.1,3.7,132.6,5.2,132.6,6.9z"/>
		<path d="M131.9,34.5c0.9,0,0.9,0,1.1,0.7c0.2,0.6,0.5,1.3,0.8,2c0.3-0.7,0.5-1.3,0.8-1.8c0,0,0-0.1,0.1-0.2
			c0.3-0.7,0.3-0.7,1.1-0.6c0,1.1,0,2.3,0,3.5c-0.2,0-0.4,0-0.7,0c0-0.7,0-1.5,0-2.2c0,0,0,0-0.1,0c-0.3,0.6-0.6,1.2-0.8,1.9
			c-0.1,0.3-0.2,0.4-0.5,0.4s-0.4-0.2-0.5-0.4c-0.2-0.6-0.5-1.2-0.8-1.8c0,0.7,0,1.4,0,2.1c-0.2,0-0.4,0-0.7,0
			C131.9,36.8,131.9,35.7,131.9,34.5z"/>
		<path d="M126.8,34.7c-0.1,0.2-0.2,0.4-0.3,0.6c-0.3-0.1-0.6-0.1-0.8-0.2c-0.1,0-0.3,0-0.5,0c-0.1,0-0.3,0.1-0.3,0.2
			c0,0.1,0.1,0.3,0.2,0.3c0.3,0.2,0.7,0.4,1.1,0.6c0.4,0.2,0.6,0.6,0.5,1c-0.1,0.4-0.4,0.6-0.8,0.7c-0.6,0.2-1.2,0-2-0.3
			c0.1-0.2,0.2-0.4,0.3-0.6c0.4,0.1,0.8,0.2,1.2,0.3c0.2,0,0.4-0.2,0.5-0.2c-0.1-0.1-0.2-0.4-0.3-0.5c-0.3-0.2-0.7-0.4-1-0.6
			c-0.7-0.4-0.6-1.2,0.1-1.5C125.4,34.3,126.1,34.4,126.8,34.7z"/>
		<path d="M149,34.5c0,0.2,0,0.3,0,0.5c-0.5,0-1.1,0-1.6,0c0,0.3,0,0.6,0,0.9c0.4,0,0.8,0,1.3,0c0,0.2,0,0.4,0,0.6
			c-0.4,0-0.9,0-1.3,0c0,0.3,0,0.6,0,0.9c0.5,0,1.1,0,1.6,0c0.2,0.5,0.1,0.6-0.4,0.6c-0.7,0-1.3,0-2,0c0-1.2,0-2.3,0-3.5
			C147.4,34.5,148.2,34.5,149,34.5z"/>
		<path d="M94,38c0-1.1,0-2.3,0-3.5c0.2,0,0.4,0,0.7,0c0,0.5,0,1,0,1.5c0,0,0,0,0.1,0c0.2-0.3,0.6-0.7,0.8-1
			c0.3-0.5,0.7-0.6,1.2-0.4c-0.4,0.6-0.9,1.1-1.3,1.7c0.4,0.6,0.9,1.1,1.4,1.8c-0.5,0.1-0.9,0.1-1.2-0.4c-0.2-0.4-0.6-0.7-0.9-1.1
			c0,0.3,0,0.6,0,0.9C94.7,38.1,94.7,38.1,94,38z"/>
		<path d="M99.3,36.5c0,0.3,0,0.6,0,0.9c0.6,0,1.1,0,1.7,0c0,0.2,0,0.4,0,0.6c-0.8,0-1.6,0-2.4,0c0-1.1,0-2.3,0-3.5
			c0.8,0,1.5,0,2.3,0c0,0.2,0,0.3,0,0.5c-0.5,0-1,0-1.6,0c0,0.3,0,0.6,0,0.9c0.4,0,0.9,0,1.3,0c0,0.2,0,0.4,0,0.6
			C100.2,36.5,99.7,36.5,99.3,36.5z"/>
		<path d="M103.7,36.5c0,0.3,0,0.6,0,0.9c0.6,0,1.1,0,1.7,0c0,0.2,0,0.4,0,0.6c-0.8,0-1.6,0-2.4,0c0-1.1,0-2.3,0-3.5
			c0.8,0,1.5,0,2.3,0c0,0.2,0,0.3,0,0.5c-0.5,0-1,0-1.6,0c0,0.3,0,0.6,0,0.9c0.4,0,0.9,0,1.3,0c0,0.2,0,0.4,0,0.6
			C104.5,36.5,104.1,36.5,103.7,36.5z"/>
		<path d="M107.3,34.5c0.5,0,1,0,1.5,0c0.7,0,1.1,0.4,1.2,1c0,0.7-0.3,1.2-1,1.3c-0.3,0-0.6,0-0.9,0.1c0,0.4,0,0.7,0,1.1
			c-0.2,0-0.5,0-0.7,0C107.3,36.8,107.3,35.7,107.3,34.5z M108,36.2c0.4,0,0.9,0.1,1.1-0.3c0.1-0.2,0.1-0.5,0-0.7
			c-0.3-0.3-0.7-0.2-1.1-0.2C108,35.5,108,35.8,108,36.2z"/>
		<path d="M138,34.5c0.6,0,1.1,0,1.7,0c0.6,0,0.9,0.4,1,0.9c0,0.6-0.2,1.1-0.8,1.3c-0.4,0.1-0.7,0.1-1.1,0.2c0,0.3,0,0.7,0,1.1
			c-0.2,0-0.5,0-0.7,0C138,36.8,138,35.7,138,34.5z M138.7,36.2c0.4,0,0.9,0.1,1.1-0.3c0.1-0.2,0-0.5,0-0.7c-0.3-0.3-0.7-0.2-1-0.2
			C138.7,35.5,138.7,35.8,138.7,36.2z"/>
		<path d="M119.9,35c-0.4,0-0.7,0-1.1,0c0,0.2,0,0.4,0,0.6c0,0.6,0,1.1,0,1.7c0,0.7,0,0.7-0.7,0.6c0-1,0-1.9,0-2.9
			c-0.4,0-0.8,0-1.2,0c0-0.2,0-0.4,0-0.5c1,0,2,0,3,0C119.9,34.7,119.9,34.8,119.9,35z"/>
		<path d="M142.5,34.5c0.2,0,0.4,0,0.7,0c0,1,0,1.9,0,2.9c0.5,0,1,0,1.6,0c0,0.2,0,0.4,0,0.6c-0.8,0-1.5,0-2.3,0
			C142.5,36.8,142.5,35.7,142.5,34.5z"/>
		<path d="M129.5,38c-0.1,0-0.1,0-0.2,0c-0.6,0-0.6,0-0.6-0.5c0-1,0-2,0-3c0.2,0,0.5,0,0.7,0C129.5,35.6,129.5,36.8,129.5,38z"/>
		<path d="M115.1,38c-0.2,0-0.4,0-0.7,0c0-1.1,0-2.3,0-3.5c0.2,0,0.4,0,0.7,0C115.1,35.6,115.1,36.8,115.1,38z"/>
	</g>
</g>
</svg>
