<?xml version="1.0" encoding="utf-8"?>
<!-- Generator: Adobe Illustrator 23.0.2, SVG Export Plug-In . SVG Version: 6.00 Build 0)  -->
<svg version="1.1" id="Capa_1" xmlns="http://www.w3.org/2000/svg" xmlns:xlink="http://www.w3.org/1999/xlink" x="0px" y="0px"
	 viewBox="0 0 459 248.7" style="enable-background:new 0 0 459 248.7;" xml:space="preserve">
<g>
	<g>
		<path d="M105.4,0c0,2.4,0,4.8,0,7.5c-1.9,0-3.6,0-5.4,0c-0.6,0-1.2,0-1.8,0c-5.2,0.1-7.4,2.3-7.4,7.6c0,23.7,0,47.4,0,71.2
			c0,15.4-7.7,26.6-22,32.4c-0.2,0.1-0.5,0.2-1.2,0.5c1.8,0.4,3.3,0.6,4.8,1c24.4,5.7,41.7,24.2,45.5,48.8
			c2.1,13.3,1.3,26.4-4.3,38.8c-8.1,18.1-21.5,30.2-41.2,34.5c-2.5,0.5-5.1,0.8-7.7,1.2c-3.1,0-6.3,0-9.4,0
			c-2.4-0.4-4.9-0.7-7.3-1.2c-22.2-4.6-40.1-22.7-44.4-45.1c-0.7-3.6-1.1-7.4-1.6-11c0-3.6,0-7.1,0-10.7c0.1-0.5,0.2-1,0.3-1.6
			c0.5-3.5,0.9-7.2,1.8-10.6c4.8-18.3,15.7-31.7,32.9-39.8c1.7-0.8,3.5-1.4,5.4-2.1c-1.9-0.4-3.6-0.7-5.3-1.2
			c-10.6-3-19-8.9-23.4-19.2c-3.8-8.9-3.2-17.8,3.5-25.5c4.8-5.5,13.1-7.3,19.6-4.4c6.5,2.8,9.8,8.7,9.2,16.4
			c-0.5,6.1-5.4,13-14.4,10.9c-1-0.2-2.1-0.4-3.2-0.5c-3.1-0.1-4.3,1.3-4,4.4c0.4,3.1,2.1,5.3,4.5,7c5.7,4.1,12.2,5.2,19,4.3
			c7.7-1,12.7-5.4,15.4-12.5c1.5-4,1.9-8,1.9-12.2c0-24.5,0-49,0-73.6c0-0.8-0.1-1.6-0.2-2.4C65,9.7,63.5,8,60.7,7.7
			c-3.3-0.3-6.8-0.2-10.2-0.2c-1.2,0-2.3,0-3.5,0c0-2.6,0-5,0-7.5C66.3,0,85.8,0,105.4,0z M29.8,184.3c0.2,3.3,0.4,9.2,1,15.2
			c0.7,7.2,2.3,14.4,5.7,20.9c6.3,11.9,19,17.5,31.8,13.7c8.6-2.5,14-8.6,17.5-16.5c3.6-8.3,4.9-17.2,5.1-26.2
			c0.2-8.9,0.1-17.9-0.3-26.8c-0.3-6.6-1.3-13.2-3.8-19.4c-4.2-10.5-11.4-17.3-22.9-18.6c-9.7-1-17.8,2-23.8,10
			c-3.4,4.6-5.5,9.7-7,15.1C30.2,161.6,29.8,171.6,29.8,184.3z"/>
		<path d="M459,101.6c-2.4,3.1-4.6,6.4-7.2,9.3c-6,6.6-13.7,9.9-22.4,10.9c-9.6,1-19,0.3-27.7-4.4c-11.6-6.3-18.3-16.1-19.9-29.2
			c-1.1-8.5-0.4-16.8,3.3-24.4c7.2-14.6,18.9-22.7,35.5-23.1c7.5-0.2,14.6,1.2,21.1,5c8.6,5.2,13.4,13.1,15.6,22.7
			c0.7,3.2,1,6.5,1.4,9.7c0.1,0.6,0.2,1.2,0.3,1.7c0,1,0,1.9,0,2.9c-0.6,0.1-1.2,0.1-1.8,0.1c-16.2,0-32.4,0-48.5,0
			c-0.5,0-1.2-0.1-1.6,0.1c-0.4,0.2-1,0.7-1,1c0.2,5.1,0.7,10.2,2.4,15.1c3.4,9.9,11.4,15.4,21.4,14.8c6.5-0.4,12-3.3,16.5-8
			c2.8-3,5.3-6.4,8-9.7c1.5,0.9,3,1.8,4.7,2.8C459,99.9,459,100.7,459,101.6z M406.1,75.7c0.8,0,1.3,0,1.9,0c8,0,16.1,0.1,24.1-0.1
			c3.4-0.1,5-1.6,5.5-4.8c0.7-5.1,0.4-10.2-2.1-14.8c-2.6-5-6.8-8-12.7-8.1c-5.8-0.1-9.9,2.8-12.5,7.9
			C407,61.9,406.4,68.7,406.1,75.7z"/>
		<path d="M184.3,51c0-2.4,0-4.7,0-7.2c10.3-0.5,20.6-1.1,31.2-1.7c0.8,5.5,1.5,10.8,2.3,16.2c2.1-2.3,4.1-4.6,6.3-6.9
			c5.5-5.6,12-9.2,19.9-10.1c13.2-1.4,22.6,3.7,27.1,16.4c0.2,0.4,0.4,0.9,0.5,1.3c2.3-2.6,4.4-5.1,6.8-7.5
			c5.4-5.5,11.9-9.4,19.6-10.3c8.3-1.1,16.1,0.1,22.3,6.4c4,4,5.8,9.1,6.6,14.6c0.3,2.2,0.4,4.4,0.4,6.6c0.1,11.6,0.1,23.2,0,34.8
			c0,3.1,1.3,5.2,4,6.4c4.9,2.1,9.9,2.1,14.7-0.1c2.6-1.2,3.9-3.2,3.8-6.1c-0.1-14.7,0-29.4-0.1-44.2c0-5.1-3-8.3-8.1-8.5
			c-1.3-0.1-2.6,0-4,0c0-2.5,0-4.9,0-7.4c4.7-0.2,9.4-0.5,14-0.7c5.8-0.2,11.5-0.5,17.3-0.7c2.1-0.1,2.1-0.1,2.1,2.1
			c0,20.3,0,40.6,0,61c0,4.3,1.9,6.2,6.1,6.3c1.8,0,3.5,0,5.6,0c0,1.3,0,2.5,0,3.7c0,1.2,0,2.4,0,3.6c-29.7,0-59.4,0-89.1,0
			c0-2.4,0-4.7,0-7.4c1.6,0,3.3,0,4.9,0c5.2,0,7.3-2.1,7.3-7.3c0-11.1,0.1-22.2-0.1-33.3c-0.1-3-0.6-6.1-1.6-8.9
			c-1.8-4.9-5.7-7.3-10.8-7.7c-8-0.7-13.7,2.7-17.3,9.8c-2.3,4.5-3.6,9.1-3.5,14.2c0.1,8.6,0.1,17.3,0.1,25.8c0,5.2,2.1,7.4,7.4,7.4
			c1.6,0,3.2,0,5,0c0,2.3,0.1,4.5-0.1,6.7c0,0.3-0.8,0.8-1.2,0.8c-2.8,0.1-5.6,0.1-8.4,0.1c-11.6,0-23.1,0-34.6,0c-0.6,0-1.3,0-2,0
			c0-2.6,0-5,0-7.5c2,0,3.9,0,5.8,0c4.7-0.1,6.7-1.9,6.7-6.5c0.1-12,0.1-24-0.1-35.9c-0.1-6-2.5-11-8.2-13.9
			c-5.8-2.9-13.7-1-18.6,4.3c-4.1,4.6-6.5,9.8-6.4,16.1c0.1,8.8,0,17.5,0.1,26.2c0,1.1,0.1,2.1,0.1,3.2c0.3,4.3,2.6,6.4,6.9,6.4
			c1.6,0.1,3.3,0,5,0c0.1,0.4,0.1,0.7,0.1,0.9c0,2.1,0,4.2,0,6.5c-0.7,0.1-1.3,0.1-1.9,0.1c-14.2,0-28.3,0-42.5,0.1
			c-1.2,0-2.4,0.3-3.6,0.7c-4.9,1.9-9.9,2.9-15,2.3c-7.4-0.9-11.9-5.5-14.9-12c-0.3-0.7-0.6-1.4-0.9-2.1c-0.1-0.1-0.1-0.1-0.1-0.1
			c-3.4,2.7-6.6,5.7-10.3,8.1c-9.5,6.3-20.1,7.3-30.7,3.7c-15.8-5.4-14.8-21.2-8.7-29.3c3.8-5.1,9.1-8.1,15-10.2
			c9.5-3.4,19.5-5.4,29.4-7.4c1.2-0.2,2.3-0.5,3.5-0.6c1-0.1,1.2-0.6,1.2-1.5c-0.1-3.2,0-6.4,0-9.7c-0.1-7.9-5.4-13.6-13.3-14.4
			c-4.5-0.4-8.8,0.2-12.7,2.7c-2.4,1.5-2.6,2.6-1.2,4.9c1.6,2.6,2.6,5.4,2.3,8.6c-0.4,4.1-3,7.5-7.1,8.3c-2.6,0.5-5.4,0.5-8-0.1
			c-6.6-1.6-9.5-8.8-6.6-15.6c1.9-4.4,5.4-7.3,9.4-9.7c6.8-4.2,14.4-5.8,22.2-6c7-0.2,13.8,0.7,20.6,2.7c9.9,3,15.1,11.4,15.6,20.3
			c0.3,6.2,0.1,12.4,0.2,18.6c0,6.7,0.1,13.4,0,20.1c-0.1,6.1,3,8.8,7.9,9.9c4.8,1,9.4,0.4,13.4-2.5c2.2-1.5,3.2-3.6,3.2-6.4
			c-0.1-14.2,0-28.5,0-42.7c0-5-2.3-7.6-7.4-8.2C187.6,51.2,186,51.2,184.3,51z M150.8,78.8c-4.6,1-8.8,1.8-13,2.8
			c-1.9,0.5-3.9,1.2-5.8,2c-7.7,3.3-11.3,9.4-10.5,17.8c0.5,4.9,3.3,8.1,8,9.1c8.3,1.7,17-3.5,19.9-12.1
			C151.5,92.1,150.5,85.6,150.8,78.8z"/>
		<path d="M116.1,137.8c0-2.4,0-4.7,0-7c3.2-0.1,6.4-0.2,9.5-0.4c6.1-0.4,12-1.2,17.4-4.3c1.4-0.8,2.7-1.8,3.9-2.9
			c1-1,2.1-1.5,3.8-1.3c0,1,0,1.9,0,3c0,33.5,0,67.1,0,100.6c0,3.2,1.5,5.3,4.3,6.4c5.6,2.1,11.3,2.1,16.9,0c3-1.2,4.4-3.3,4.4-6.8
			c-0.1-14.5-0.1-29.1-0.1-43.7c0-5.4-3-8.6-8.5-8.7c-1.2-0.1-2.4,0-3.8,0c0-2.5,0-4.8,0-7.4c11.1-0.5,22.1-1,33.5-1.5
			c0,0.9,0,1.5,0,2.1c0,20.1,0,40.2,0,60.3c0,0.5,0,1,0,1.5c0.1,3.3,1.9,5.2,5.2,5.4c1.1,0.1,2.1,0.1,3.2,0.1c1,0,2,0,3.2,0
			c0,2.6,0,5,0,7.5c-30.5,0-60.9,0-91.5,0c0-2.4,0-4.8,0-7.5c1.4,0,2.9,0,4.4,0c5.4,0,7.7-2.3,7.7-7.7c0-26.4,0-52.9,0-79.2
			c0-4.9-3.4-8.5-8.3-8.6C119.6,137.7,118,137.8,116.1,137.8z"/>
		<path d="M362.6,216.7c2.1,1.3,3.9,2.4,5.8,3.6c-6.6,11.9-15.6,20.3-29.6,22c-8.8,1.1-17.5,0.8-25.7-2.9
			c-13.9-6.1-21.5-16.9-23.1-31.9c-0.9-8.8,0.2-17.4,4.6-25.2c7.2-12.9,18.1-20.3,33-21c7.4-0.4,14.5,0.7,21.1,4.2
			c9.9,5.3,15.1,14,17.3,24.7c0.9,4.3,1.2,8.7,1.7,13.3c-17.9,0-35.4,0-53.2,0c0.2,2.4,0.2,4.6,0.5,6.8c0.5,4.7,1.5,9.2,3.8,13.4
			c5.7,10.3,17.5,13.7,28.3,8.5c5.7-2.7,9.7-7.3,13.3-12.3C361.1,219,361.9,217.9,362.6,216.7z M314.6,196.3
			c0.5,0.1,0.9,0.1,1.2,0.1c7.9,0,15.9,0,23.8,0c0.7,0,1.5-0.1,2.3-0.2c2.1-0.4,3.5-1.5,4-3.6c1.1-5.2,0.6-10.2-1.5-15
			c-2.4-5.4-6.5-8.6-12.6-8.8c-6.2-0.2-10.5,2.8-13.1,8.2C315.6,182.9,315,189.5,314.6,196.3z"/>
		<path d="M419.7,233.4c0,2.6,0,5,0,7.5c-17.3,0-34.5,0-51.9,0c0-2.4,0-4.9,0-7.5c1.8,0,3.5,0,5.2,0c1.2,0,2.3,0,3.4-0.2
			c3.5-0.7,5-2.6,5-6.1c0-14.7,0-29.4,0-44.2c0-1.2-0.1-2.4-0.4-3.5c-0.9-4.4-4-6.7-8.9-6.8c-1.3-0.1-2.7,0-4.2,0c0-2.4,0-4.7,0-7.1
			c10.6-0.5,21.2-1.1,31.9-1.6c0,7.7,0,15.3,0,22.9c0.1,0,0.2,0.1,0.4,0.1c0.2-0.6,0.4-1.2,0.5-1.9c2.3-7.5,5.9-14.1,12.7-18.5
			c6.3-4.1,13.2-5,20.2-2.1c8.6,3.6,11,15.6,4.4,22c-2.7,2.6-6,3.4-9.5,2.3c-3.6-1.2-5.7-3.9-6.4-7.6c-0.5-2.6,0-5,1-7.4
			c0.5-1.3,1.5-2.7,0.2-3.9c-1.3-1.2-2.9-0.5-4.3,0.1c-2.9,1.4-4.9,3.7-6.6,6.3c-4.6,7-7,14.8-8.5,23c-1.2,6.3-1,12.7-1,19
			c0,3.2-0.1,6.4,0.1,9.7c0.1,3.3,2,5.3,5.4,5.4c3.1,0.1,6.3,0,9.4,0C418.3,233.4,418.9,233.4,419.7,233.4z"/>
		<path d="M203,171.1c0-2.4,0-4.6,0-7c14.8,0,29.6,0,44.6,0c0,2.1,0.1,4.1-0.1,6.1c0,0.3-0.7,0.8-1.2,0.9c-2.1,0.2-4.3,0.1-6.4,0.5
			c-2.8,0.4-4,2.4-3.3,5.2c0.3,1.2,0.7,2.4,1.3,3.5c6.2,11.6,12.5,23.1,18.7,34.7c0.2,0.3,0.3,0.5,0.7,1c0.5-0.9,0.9-1.6,1.3-2.4
			c5-10,10.1-20.1,15.1-30.2c0.6-1.3,1.1-2.7,1.3-4.1c0.5-3.1-0.9-5.5-3.8-6.7c-1.2-0.5-2.4-0.8-3.5-1c-1.2-0.2-2.3-0.3-3.6-0.4
			c0-2.3,0-4.6,0-6.9c10.7,0,21.3,0,32.2,0c0,2.3,0,4.6,0,7.1c-6.4,0.1-9.5,4.3-12.1,9.5c-9.6,19.6-19.4,39.2-29.1,58.8
			c-0.5,1.1-1.2,1.4-2.4,1.6c-3.1,0.4-4.7-0.8-6.1-3.6c-10.5-19.6-21.2-39.1-31.8-58.6c-0.7-1.2-1.3-2.3-2-3.5
			c-1.7-2.9-4.2-4.4-7.6-4.3C204.3,171.1,203.8,171.1,203,171.1z"/>
		<path d="M171.9,143.1c0-7.4,5.8-13.3,13.1-13.3c7.2,0,13.1,5.8,13.1,13.1c0.1,7.2-5.7,13.2-12.8,13.2
			C177.8,156.2,171.9,150.5,171.9,143.1z"/>
		<path d="M372.6,22c0,7.4-5.8,13.1-13.3,13.1c-7.4-0.1-13.1-5.8-13.1-13.1c0-7.4,5.8-13.1,13.3-13.1C366.8,8.8,372.6,14.7,372.6,22
			z"/>
		<path d="M369.8,134.7c3.5-0.2,3.5-0.2,4.7,2.7c1,2.6,2.1,5.2,3.3,8.1c1.2-2.8,2.2-5.2,3.2-7.5c0.1-0.2,0.2-0.5,0.3-0.7
			c1.3-3,1.3-3,4.7-2.6c0,4.7,0,9.4,0,14.2c-0.9,0-1.8,0-2.7,0c0-3,0-6,0-9.1c-0.1,0-0.2-0.1-0.3-0.1c-1.1,2.6-2.3,5.1-3.3,7.7
			c-0.4,1.1-1,1.6-2.2,1.6c-1.2,0-1.5-0.7-1.9-1.6c-0.9-2.4-1.9-4.9-3.2-7.3c0,2.9,0,5.8,0,8.7c-1,0-1.8,0-2.7,0
			C369.8,144.2,369.8,139.5,369.8,134.7z"/>
		<path d="M349.1,135.5c-0.5,0.9-0.9,1.6-1.2,2.4c-1.2-0.3-2.3-0.6-3.3-0.8c-0.6-0.1-1.3-0.1-1.9,0.1c-0.4,0.1-1.1,0.6-1.1,0.9
			c0,0.5,0.4,1.1,0.8,1.3c1.4,0.9,2.9,1.6,4.4,2.4c1.6,0.9,2.3,2.4,1.9,4.2c-0.3,1.8-1.6,2.6-3.2,3c-2.6,0.7-5,0.2-8.1-1.4
			c0.4-0.8,0.8-1.6,1.1-2.3c1.7,0.4,3.2,0.9,4.8,1.1c0.7,0.1,1.5-0.7,2.1-1c-0.5-0.6-0.8-1.5-1.4-1.9c-1.3-0.9-2.9-1.5-4.2-2.4
			c-2.7-1.8-2.4-5,0.5-6.3C343.2,133.7,346.1,134.3,349.1,135.5z"/>
		<path d="M439.8,134.7c0,0.7,0,1.3,0,2.2c-2.2,0-4.3,0-6.6,0c0,1.2,0,2.3,0,3.5c1.7,0,3.4,0,5.3,0c0,0.9,0,1.6,0,2.6
			c-1.7,0-3.5,0-5.3,0c0,1.3,0,2.4,0,3.7c2.2,0,4.4,0,6.5,0c0.7,2.2,0.5,2.5-1.5,2.5c-2.7,0-5.4,0-8.1,0c0-4.9,0-9.5,0-14.4
			C433.3,134.7,436.4,134.7,439.8,134.7z"/>
		<path d="M214.8,148.9c0-4.7,0-9.4,0-14.2c0.9,0,1.8,0,2.9,0c0,2,0,4,0,6c0.1,0.1,0.2,0.1,0.4,0.1c1-1.4,2.3-2.7,3.1-4.2
			c1.1-1.9,2.7-2.4,4.9-1.8c-1.8,2.3-3.5,4.6-5.2,6.8c1.8,2.4,3.6,4.7,5.6,7.3c-2.1,0.4-3.7,0.3-4.9-1.6c-1-1.6-2.3-3-3.8-4.5
			c0,1.3,0,2.6,0,3.8C217.8,149.3,217.8,149.3,214.8,148.9z"/>
		<path d="M236.6,142.9c0,1.3,0,2.4,0,3.7c2.3,0,4.6,0,6.8,0c0,0.9,0,1.6,0,2.4c-3.3,0-6.4,0-9.8,0c0-4.7,0-9.4,0-14.2
			c3.1,0,6.2,0,9.5,0c0,0.7,0,1.3,0,2.1c-2.1,0-4.2,0-6.4,0c0,1.2,0,2.3,0,3.6c1.8,0,3.5,0,5.2,0c0,0.9,0,1.6,0,2.5
			C240.1,142.9,238.4,142.9,236.6,142.9z"/>
		<path d="M254.4,142.9c0,1.3,0,2.4,0,3.7c2.3,0,4.5,0,6.8,0c0,0.9,0,1.6,0,2.4c-3.2,0-6.4,0-9.8,0c0-4.7,0-9.4,0-14.2
			c3.1,0,6.2,0,9.5,0c0,0.7,0,1.3,0,2.1c-2.1,0-4.2,0-6.4,0c0,1.2,0,2.3,0,3.6c1.8,0,3.5,0,5.3,0c0,0.9,0,1.6,0,2.5
			C257.9,142.9,256.2,142.9,254.4,142.9z"/>
		<path d="M269.2,134.6c2.1,0,4.1-0.1,6.1,0c2.9,0.1,4.6,1.5,4.8,4c0.2,2.8-1.4,4.9-4.2,5.4c-1.2,0.2-2.4,0.2-3.8,0.4
			c0,1.5,0,3,0,4.6c-1,0-1.9,0-2.9,0C269.2,144.2,269.2,139.5,269.2,134.6z M272.1,141.7c1.7,0.1,3.5,0.5,4.4-1.2
			c0.4-0.7,0.4-2.1-0.1-2.7c-1.1-1.4-2.7-0.9-4.3-0.9C272.1,138.6,272.1,140.1,272.1,141.7z"/>
		<path d="M394.9,134.7c2.4,0,4.7-0.1,7,0.1s3.6,1.7,3.9,3.8c0.2,2.4-1,4.5-3.2,5.2c-1.5,0.4-3,0.5-4.7,0.8c0,1.4,0,2.9,0,4.5
			c-1,0-1.9,0-2.9,0C394.9,144.2,394.9,139.5,394.9,134.7z M397.9,141.7c1.7-0.1,3.5,0.5,4.4-1.3c0.4-0.7,0.2-2.1-0.2-2.7
			c-1.1-1.3-2.7-0.9-4.2-0.8C397.9,138.6,397.9,140.1,397.9,141.7z"/>
		<path d="M320.7,136.9c-1.6,0-2.9,0-4.5,0c-0.1,0.9-0.1,1.8-0.1,2.6c0,2.4,0,4.7,0,7.1c0,2.7,0,2.7-3,2.4c0-3.9,0-7.8,0-12
			c-1.7,0-3.2,0-4.8,0c0-0.9,0-1.5,0-2.2c4.1,0,8.2,0,12.4,0C320.7,135.4,320.7,136,320.7,136.9z"/>
		<path d="M413.4,134.7c1,0,1.8,0,2.9,0c0,4,0,7.8,0,11.9c2.2,0,4.2,0,6.4,0c0,0.9,0,1.6,0,2.4c-3.1,0-6.1,0-9.3,0
			C413.4,144.2,413.4,139.5,413.4,134.7z"/>
		<path d="M360.2,148.9c-0.3,0.1-0.5,0.1-0.7,0.1c-2.3,0.1-2.3,0.1-2.3-2.1c0-4,0-8,0-12.2c1,0,1.9,0,3,0
			C360.2,139.4,360.2,144.1,360.2,148.9z"/>
		<path d="M301,149c-1,0-1.8,0-2.8,0c0-4.7,0-9.5,0-14.3c0.9,0,1.8,0,2.8,0C301,139.4,301,144.1,301,149z"/>
	</g>
</g>
</svg>
