<?xml version="1.0" encoding="utf-8"?>
<!-- Generator: Adobe Illustrator 23.0.2, SVG Export Plug-In . SVG Version: 6.00 Build 0)  -->
<svg version="1.1" id="Capa_1" xmlns="http://www.w3.org/2000/svg" xmlns:xlink="http://www.w3.org/1999/xlink" x="0px" y="0px"
	 viewBox="0 0 780 404" style="enable-background:new 0 0 780 404;" xml:space="preserve">
<g>
	<g>
		<path d="M179.2,2.5c0,4,0,7.9,0,12.3c-3.2,0-6,0-8.8,0c-1,0-1.9,0-2.9,0c-8.6,0.1-12.2,3.8-12.2,12.5c0,39,0,78,0,117
			c0,25.3-12.6,43.8-36.1,53.2c-0.4,0.2-0.8,0.4-1.9,0.8c3,0.6,5.5,1,7.9,1.6c40.1,9.3,68.6,39.8,74.8,80.3
			c3.4,21.9,2.1,43.4-7,63.8c-13.3,29.7-35.3,49.6-67.7,56.7c-4.1,0.9-8.4,1.3-12.6,1.9c-5.1,0-10.3,0-15.4,0c-4-0.6-8.1-1.1-12-1.9
			c-36.5-7.5-65.9-37.3-73-74.2c-1.2-6-1.8-12.1-2.7-18.1c0-5.9,0-11.7,0-17.6c0.2-0.9,0.3-1.7,0.5-2.6c0.9-5.8,1.4-11.8,2.9-17.5
			c7.9-30.1,25.8-52.1,54.1-65.4c2.8-1.3,5.7-2.3,8.9-3.5c-3.2-0.7-6-1.2-8.7-2c-17.4-4.9-31.3-14.7-38.5-31.5
			c-6.3-14.7-5.3-29.3,5.8-42c7.9-9.1,21.5-12,32.3-7.3c10.7,4.6,16.1,14.3,15.1,26.9c-0.8,10-8.9,21.3-23.6,17.9
			c-1.7-0.4-3.5-0.7-5.2-0.8c-5.1-0.2-7.1,2.1-6.5,7.2c0.6,5.1,3.4,8.7,7.4,11.5c9.4,6.7,20.1,8.6,31.3,7.1
			c12.6-1.7,20.9-8.9,25.4-20.6c2.4-6.5,3.1-13.2,3.1-20.1c0-40.3,0-80.6,0-121c0-1.3-0.1-2.7-0.3-4c-0.8-4.7-3.2-7.5-7.9-7.9
			c-5.5-0.5-11.1-0.3-16.7-0.4c-1.9,0-3.8,0-5.8,0c0-4.3,0-8.3,0-12.3C115,2.5,147.1,2.5,179.2,2.5z M54.9,305.6
			c0.3,5.4,0.7,15.2,1.6,25c1.1,11.9,3.7,23.6,9.3,34.4c10.3,19.5,31.2,28.8,52.3,22.6c14.1-4.1,23-14.2,28.7-27.2
			c6-13.7,8-28.3,8.4-43c0.4-14.7,0.1-29.4-0.5-44c-0.5-10.9-2.2-21.7-6.3-31.9c-6.9-17.2-18.7-28.5-37.7-30.5
			c-15.9-1.7-29.3,3.3-39.2,16.4c-5.6,7.5-9.1,16-11.5,24.9C55.6,268.2,55,284.6,54.9,305.6z"/>
		<path d="M760.6,169.6c-3.9,5.1-7.5,10.5-11.8,15.3c-9.9,10.8-22.5,16.3-36.9,17.9c-15.8,1.7-31.2,0.5-45.5-7.2
			c-19.1-10.3-30.1-26.5-32.8-48c-1.8-13.9-0.7-27.6,5.5-40.2c11.9-24,31-37.3,58.3-37.9c12.3-0.3,24,1.9,34.7,8.3
			c14.2,8.5,22.1,21.6,25.7,37.4c1.2,5.2,1.6,10.7,2.3,16c0.1,1,0.3,1.9,0.5,2.8c0,1.6,0,3.2,0,4.8c-1,0.1-1.9,0.2-2.9,0.2
			c-26.6,0-53.2,0-79.8,0c-0.9,0-1.9-0.2-2.6,0.1c-0.7,0.3-1.7,1.1-1.6,1.7c0.3,8.4,1.2,16.8,3.9,24.8c5.6,16.2,18.7,25.4,35.2,24.3
			c10.7-0.7,19.8-5.4,27.1-13.1c4.6-5,8.7-10.5,13.1-15.9c2.4,1.4,5,3,7.7,4.6C760.6,166.7,760.6,168.1,760.6,169.6z M673.6,127
			c1.3,0,2.2,0,3.1,0c13.2,0,26.4,0.1,39.6-0.1c5.6-0.1,8.3-2.6,9-7.9c1.1-8.4,0.6-16.7-3.4-24.3c-4.3-8.3-11.1-13.2-20.8-13.3
			c-9.6-0.1-16.3,4.6-20.6,13C675.2,104.3,674.2,115.4,673.6,127z"/>
		<path d="M309,86.4c0-3.9,0-7.8,0-11.9c16.9-0.9,33.8-1.8,51.3-2.8c1.3,9,2.5,17.8,3.8,26.7c3.5-3.8,6.8-7.6,10.4-11.3
			c9-9.2,19.7-15.2,32.7-16.6c21.7-2.3,37.2,6.1,44.6,27c0.3,0.7,0.6,1.5,0.9,2.2c3.8-4.2,7.3-8.4,11.1-12.3
			c8.9-9.1,19.5-15.4,32.3-17c13.6-1.8,26.4,0.1,36.6,10.5c6.5,6.6,9.6,15,10.8,24c0.5,3.6,0.6,7.2,0.6,10.9
			c0.1,19.1,0.1,38.1,0,57.2c0,5.1,2.1,8.5,6.6,10.5c8.1,3.5,16.2,3.5,24.2-0.2c4.2-1.9,6.4-5.2,6.3-10.1c-0.1-24.2,0-48.4-0.1-72.6
			c0-8.4-5-13.6-13.4-14c-2.1-0.1-4.2,0-6.6,0c0-4.1,0-8,0-12.1c7.8-0.4,15.4-0.8,23.1-1.1c9.5-0.4,18.9-0.8,28.4-1.2
			c3.4-0.1,3.4-0.2,3.4,3.4c0,33.4,0,66.8,0,100.3c0,7.1,3.1,10.2,10.1,10.3c2.9,0,5.8,0,9.2,0c0,2.1,0,4.1,0,6.1c0,1.9,0,3.9,0,6
			c-48.9,0-97.6,0-146.5,0c0-3.9,0-7.8,0-12.1c2.7,0,5.4,0,8.1,0c8.5,0,12-3.5,12-12c0-18.3,0.2-36.5-0.1-54.8
			c-0.1-4.9-1-10.1-2.7-14.7c-2.9-8-9.3-12-17.7-12.7c-13.1-1.1-22.6,4.4-28.5,16.1c-3.8,7.4-5.9,15-5.8,23.4
			c0.2,14.2,0.1,28.4,0.1,42.5c0,8.6,3.5,12.1,12.1,12.2c2.6,0,5.3,0,8.3,0c0,3.8,0.1,7.4-0.1,11c0,0.5-1.3,1.3-2,1.3
			c-4.6,0.1-9.2,0.1-13.8,0.1c-19,0-37.9,0-56.9,0c-1,0-2.1,0-3.3,0c0-4.3,0-8.2,0-12.4c3.3,0,6.4,0,9.6,0c7.7-0.1,11-3.1,11-10.7
			c0.1-19.7,0.2-39.4-0.2-59c-0.2-9.9-4.1-18.1-13.5-22.8c-9.5-4.7-22.6-1.7-30.5,7.1c-6.7,7.5-10.7,16.1-10.5,26.5
			c0.2,14.4,0,28.7,0.1,43.1c0,1.8,0.1,3.5,0.2,5.3c0.5,7,4.3,10.5,11.4,10.6c2.7,0.1,5.4,0,8.3,0c0.1,0.7,0.2,1.1,0.2,1.5
			c0,3.4,0,6.9,0,10.7c-1.2,0.1-2.2,0.2-3.2,0.2c-23.3,0-46.6,0-69.9,0.1c-2,0-4,0.5-5.9,1.2c-8,3.2-16.2,4.7-24.7,3.7
			c-12.1-1.5-19.5-9.1-24.5-19.7c-0.5-1.1-1-2.3-1.5-3.4c-0.1-0.1-0.2-0.2-0.2-0.2c-5.6,4.5-10.9,9.3-16.9,13.3
			c-15.7,10.3-33,12-50.4,6.1c-26-8.8-24.4-34.8-14.3-48.2c6.3-8.4,14.9-13.4,24.6-16.8c15.7-5.6,32-8.9,48.3-12.2
			c1.9-0.4,3.8-0.8,5.7-1c1.6-0.2,2-1,2-2.5c-0.1-5.3,0-10.6,0-16c-0.2-13-8.8-22.4-21.9-23.6c-7.4-0.7-14.5,0.4-20.9,4.4
			c-3.9,2.4-4.3,4.2-1.9,8.1c2.7,4.3,4.2,8.9,3.7,14.1c-0.7,6.7-5,12.4-11.6,13.6c-4.2,0.8-8.9,0.9-13.1-0.1
			c-10.9-2.6-15.6-14.4-10.8-25.7c3.1-7.2,8.9-12,15.5-15.9c11.2-6.9,23.6-9.5,36.5-9.9c11.5-0.4,22.7,1.1,33.8,4.5
			c16.3,4.9,24.8,18.8,25.6,33.4c0.5,10.2,0.2,20.4,0.3,30.6c0,11,0.2,22,0,33c-0.2,10,4.9,14.5,13,16.3c7.9,1.7,15.4,0.6,22.1-4.1
			c3.6-2.5,5.2-6,5.2-10.5c-0.1-23.4,0-46.8,0-70.2c0-8.3-3.8-12.5-12.1-13.5C314.4,86.6,311.8,86.6,309,86.4z M253.9,132
			c-7.6,1.6-14.5,3-21.4,4.6c-3.2,0.8-6.4,2-9.5,3.3c-12.6,5.4-18.5,15.5-17.2,29.2c0.8,8,5.5,13.4,13.2,14.9
			c13.7,2.8,27.9-5.8,32.7-19.9C255.1,153.9,253.4,143.2,253.9,132z"/>
		<path d="M196.9,229c0-4,0-7.7,0-11.5c5.3-0.2,10.5-0.3,15.7-0.6c10-0.6,19.8-1.9,28.6-7c2.3-1.3,4.5-2.9,6.4-4.7
			c1.7-1.7,3.5-2.5,6.3-2.2c0,1.6,0,3.2,0,4.9c0,55.1,0,110.3,0,165.4c0,5.3,2.4,8.7,7,10.5c9.2,3.5,18.6,3.5,27.8,0
			c4.9-1.9,7.3-5.4,7.3-11.1c-0.2-23.9-0.1-47.9-0.1-71.8c0-8.9-5-14.1-13.9-14.3c-2-0.1-4,0-6.2,0c0-4.1,0-7.9,0-12.1
			c18.2-0.8,36.4-1.7,55-2.5c0,1.4,0,2.5,0,3.5c0,33.1,0,66.1,0,99.2c0,0.8,0,1.6,0,2.4c0.2,5.4,3.1,8.5,8.5,8.9
			c1.8,0.1,3.5,0.1,5.3,0.1c1.7,0,3.3,0,5.2,0c0,4.2,0,8.2,0,12.3c-50.2,0-100.2,0-150.5,0c0-4,0-7.9,0-12.3c2.3,0,4.8,0,7.2,0
			c8.8,0,12.6-3.7,12.6-12.6c0-43.4,0-86.9,0-130.3c0-8.1-5.6-13.9-13.7-14.2C202.6,228.9,199.9,229,196.9,229z"/>
		<path d="M602.2,358.8c3.4,2.1,6.4,4,9.6,5.9c-10.8,19.6-25.7,33.3-48.6,36.1c-14.4,1.8-28.8,1.3-42.3-4.7
			c-22.8-10.1-35.4-27.8-38-52.5c-1.5-14.5,0.3-28.6,7.5-41.4c11.8-21.2,29.7-33.3,54.3-34.5c12.1-0.6,23.9,1.1,34.7,6.9
			c16.2,8.7,24.9,23,28.4,40.6c1.4,7.1,1.9,14.3,2.8,21.9c-29.5,0-58.2,0-87.5,0c0.3,3.9,0.4,7.5,0.8,11.1
			c0.8,7.7,2.5,15.2,6.2,22.1c9.3,16.9,28.7,22.6,46.6,14c9.3-4.5,15.9-12,21.8-20.2C599.7,362.5,600.9,360.7,602.2,358.8z
			 M523.2,325.2c0.9,0.1,1.4,0.1,1.9,0.1c13,0,26.1,0,39.1,0c1.2,0,2.5-0.2,3.7-0.4c3.5-0.6,5.8-2.5,6.6-6c1.8-8.5,1-16.8-2.4-24.7
			c-3.9-8.9-10.7-14.2-20.7-14.5c-10.2-0.4-17.2,4.6-21.6,13.5C524.8,303.2,523.8,314,523.2,325.2z"/>
		<path d="M696,386.2c0,4.3,0,8.2,0,12.3c-28.4,0-56.8,0-85.4,0c0-4,0-8,0-12.3c2.9,0,5.7,0,8.6,0c1.9,0,3.7,0,5.6-0.4
			c5.7-1.1,8.2-4.3,8.2-10c0-24.2,0-48.4,0-72.6c0-1.9-0.2-3.9-0.6-5.8c-1.5-7.2-6.5-11-14.7-11.2c-2.2-0.1-4.4,0-6.9,0
			c0-3.9,0-7.7,0-11.7c17.4-0.9,34.8-1.8,52.5-2.7c0,12.7,0,25.2,0,37.7c0.2,0,0.4,0.1,0.7,0.1c0.3-1,0.6-2,0.9-3.1
			c3.7-12.4,9.7-23.2,20.9-30.4c10.4-6.7,21.7-8.2,33.2-3.4c14.2,5.9,18.1,25.7,7.3,36.2c-4.4,4.3-9.8,5.6-15.7,3.8
			c-6-1.9-9.4-6.4-10.6-12.5c-0.9-4.3,0-8.3,1.7-12.1c0.9-2.1,2.4-4.4,0.3-6.4c-2.1-2-4.8-0.9-7,0.2c-4.7,2.3-8,6.1-10.9,10.3
			c-7.6,11.5-11.5,24.4-14,37.8c-2,10.3-1.7,20.8-1.7,31.3c0,5.3-0.1,10.6,0.1,16c0.1,5.5,3.3,8.7,8.9,8.8c5.1,0.1,10.3,0,15.4,0
			C693.7,386.2,694.7,386.2,696,386.2z"/>
		<path d="M339.8,283.8c0-4,0-7.6,0-11.5c24.4,0,48.6,0,73.3,0c0,3.4,0.1,6.7-0.1,10c0,0.5-1.2,1.3-1.9,1.4
			c-3.5,0.3-7.1,0.2-10.6,0.8c-4.6,0.7-6.6,4-5.5,8.5c0.5,2,1.2,3.9,2.1,5.7c10.2,19,20.5,38,30.8,57c0.3,0.5,0.5,0.9,1.1,1.7
			c0.8-1.5,1.5-2.7,2.1-4c8.3-16.5,16.6-33.1,24.8-49.6c1-2.1,1.8-4.4,2.2-6.8c0.9-5.1-1.5-9-6.3-11c-1.9-0.8-3.9-1.3-5.8-1.7
			c-1.9-0.4-3.8-0.5-5.9-0.7c0-3.7,0-7.5,0-11.4c17.6,0,35.1,0,52.9,0c0,3.8,0,7.5,0,11.6c-10.5,0.2-15.6,7.1-19.9,15.7
			c-15.8,32.3-31.9,64.4-47.9,96.6c-0.9,1.8-2,2.3-4,2.6c-5.1,0.7-7.7-1.3-10.1-5.9c-17.2-32.2-34.8-64.3-52.3-96.4
			c-1.1-1.9-2.2-3.8-3.3-5.7c-2.8-4.8-6.9-7.2-12.5-7C341.9,283.8,341,283.8,339.8,283.8z"/>
		<path d="M288.6,237.8c0-12.1,9.5-21.8,21.6-21.8c11.9,0,21.6,9.6,21.6,21.6c0.1,11.9-9.4,21.7-21.1,21.7
			C298.3,259.4,288.6,250,288.6,237.8z"/>
		<path d="M618.6,38.6c0,12.2-9.5,21.6-21.8,21.5c-12.1-0.1-21.5-9.6-21.5-21.6c0-12.1,9.6-21.6,21.8-21.6
			C609,17,618.6,26.6,618.6,38.6z"/>
		<path d="M613.9,223.9c5.7-0.4,5.7-0.4,7.7,4.5c1.7,4.2,3.5,8.5,5.5,13.4c1.9-4.6,3.6-8.5,5.3-12.4c0.2-0.4,0.4-0.8,0.5-1.2
			c2.1-4.9,2.1-4.9,7.8-4.2c0,7.7,0,15.5,0,23.4c-1.4,0-2.9,0-4.5,0c0-5,0-9.9,0-14.9c-0.2,0-0.3-0.1-0.5-0.1
			c-1.8,4.2-3.7,8.4-5.4,12.7c-0.7,1.8-1.6,2.6-3.6,2.6c-2,0-2.5-1.1-3.1-2.6c-1.5-4-3.2-8-5.3-12c0,4.7,0,9.5,0,14.3
			c-1.7,0-3,0-4.4,0C613.9,239.6,613.9,231.8,613.9,223.9z"/>
		<path d="M579.9,225.3c-0.8,1.5-1.4,2.7-2,3.9c-1.9-0.5-3.7-1-5.5-1.3c-1-0.2-2.1-0.2-3.1,0.1c-0.7,0.2-1.8,1-1.8,1.5
			c0,0.8,0.6,1.8,1.3,2.2c2.3,1.4,4.8,2.7,7.2,4c2.7,1.5,3.8,3.9,3.2,6.9c-0.5,3-2.7,4.2-5.3,4.9c-4.2,1.1-8.3,0.4-13.3-2.3
			c0.6-1.3,1.3-2.6,1.8-3.7c2.8,0.7,5.3,1.5,7.9,1.8c1.1,0.1,2.4-1.1,3.5-1.7c-0.8-1-1.3-2.4-2.3-3.1c-2.2-1.5-4.7-2.4-6.9-3.9
			c-4.4-3-4-8.2,0.9-10.4C570.3,222.3,575,223.3,579.9,225.3z"/>
		<path d="M729,223.9c0,1.2,0,2.2,0,3.6c-3.6,0-7.1,0-10.8,0c0,2,0,3.8,0,5.8c2.8,0,5.6,0,8.7,0c0,1.5,0,2.7,0,4.2
			c-2.8,0-5.7,0-8.7,0c0,2.1,0,3.9,0,6.1c3.6,0,7.2,0,10.7,0c1.1,3.6,0.9,4.1-2.4,4.1c-4.4,0-8.8,0-13.4,0c0-8,0-15.7,0-23.7
			C718.3,223.9,723.5,223.9,729,223.9z"/>
		<path d="M359.1,247.3c0-7.8,0-15.5,0-23.4c1.5,0,3,0,4.8,0c0,3.3,0,6.6,0,9.9c0.2,0.1,0.4,0.1,0.6,0.2c1.7-2.3,3.7-4.5,5.1-6.9
			c1.8-3.2,4.4-4,8.1-3c-2.9,3.8-5.7,7.5-8.6,11.2c3,3.9,6,7.8,9.2,12c-3.5,0.7-6.1,0.5-8-2.7c-1.6-2.7-3.8-5-6.3-7.4
			c0,2.1,0,4.2,0,6.2C364,248,364,248,359.1,247.3z"/>
		<path d="M395,237.5c0,2.1,0,3.9,0,6.1c3.8,0,7.5,0,11.2,0c0,1.5,0,2.6,0,3.9c-5.4,0-10.6,0-16.1,0c0-7.7,0-15.5,0-23.4
			c5.1,0,10.2,0,15.6,0c0,1.1,0,2.2,0,3.5c-3.5,0-6.9,0-10.6,0c0,2,0,3.8,0,5.9c2.9,0,5.7,0,8.6,0c0,1.4,0,2.6,0,4.1
			C400.7,237.5,397.9,237.5,395,237.5z"/>
		<path d="M424.3,237.5c0,2.1,0,3.9,0,6.1c3.7,0,7.4,0,11.2,0c0,1.5,0,2.6,0,3.9c-5.3,0-10.6,0-16.1,0c0-7.7,0-15.5,0-23.4
			c5.1,0,10.2,0,15.6,0c0,1.1,0,2.2,0,3.5c-3.5,0-6.9,0-10.6,0c0,2,0,3.8,0,5.9c2.9,0,5.7,0,8.7,0c0,1.4,0,2.6,0,4.1
			C430,237.5,427.2,237.5,424.3,237.5z"/>
		<path d="M448.5,223.8c3.5,0,6.7-0.1,10,0c4.7,0.1,7.6,2.5,7.9,6.5c0.3,4.6-2.3,8.1-6.9,8.9c-2,0.3-4,0.4-6.3,0.6
			c0,2.4,0,4.9,0,7.6c-1.7,0-3.1,0-4.8,0C448.5,239.6,448.5,231.9,448.5,223.8z M453.3,235.4c2.8,0.1,5.7,0.9,7.2-1.9
			c0.6-1.1,0.6-3.4-0.2-4.4c-1.8-2.3-4.5-1.5-7.1-1.4C453.3,230.4,453.3,232.9,453.3,235.4z"/>
		<path d="M655.3,223.9c4,0,7.8-0.2,11.5,0.1c3.7,0.3,6,2.8,6.4,6.3c0.4,3.9-1.6,7.4-5.3,8.5c-2.4,0.7-5,0.8-7.8,1.3
			c0,2.3,0,4.7,0,7.4c-1.7,0-3.1,0-4.8,0C655.3,239.6,655.3,231.9,655.3,223.9z M660.2,235.5c2.8-0.1,5.8,0.8,7.3-2.2
			c0.6-1.2,0.4-3.4-0.4-4.4c-1.8-2.1-4.4-1.4-6.9-1.3C660.2,230.4,660.2,232.8,660.2,235.5z"/>
		<path d="M533.3,227.6c-2.6,0-4.8,0-7.4,0c-0.1,1.5-0.2,2.9-0.2,4.2c0,3.9,0,7.8,0,11.7c0,4.5,0,4.5-4.9,3.9c0-6.4,0-12.9,0-19.7
			c-2.8,0-5.3,0-7.9,0c0-1.4,0-2.4,0-3.6c6.7,0,13.5,0,20.4,0C533.3,225.1,533.3,226.1,533.3,227.6z"/>
		<path d="M685.7,223.9c1.7,0,3,0,4.8,0c0,6.5,0,12.9,0,19.6c3.6,0,6.9,0,10.5,0c0,1.5,0,2.6,0,3.9c-5.1,0-10.1,0-15.3,0
			C685.7,239.6,685.7,231.8,685.7,223.9z"/>
		<path d="M598.2,247.4c-0.5,0.1-0.8,0.2-1.1,0.2c-3.8,0.2-3.8,0.2-3.8-3.5c0-6.6,0-13.2,0-20.1c1.7,0,3.2,0,5,0
			C598.2,231.7,598.2,239.4,598.2,247.4z"/>
		<path d="M500.9,247.5c-1.6,0-3,0-4.6,0c0-7.8,0-15.6,0-23.5c1.4,0,2.9,0,4.6,0C500.9,231.7,500.9,239.4,500.9,247.5z"/>
	</g>
</g>
</svg>
